<svg width="16" height="16" viewBox="0 0 16 16" fill="none" xmlns="http://www.w3.org/2000/svg">
<path fill-rule="evenodd" clip-rule="evenodd" d="M8.99774 9L8.99774 11.6645C8.99774 11.8498 9.14793 12 9.3332 12C9.41168 12 9.48768 11.9725 9.54797 11.9222L14.2692 7.98785C14.414 7.8672 14.4977 7.68847 14.4977 7.5C14.4977 7.31153 14.414 7.1328 14.2692 7.01215L9.54797 3.07775C9.48768 3.02751 9.41168 3 9.3332 3C9.14793 3 8.99774 3.15019 8.99774 3.33547L8.99774 6H7.49774C5.91436 6 4.31605 6.57134 3.25719 7.69194C2.35813 8.64341 1.70875 10.1383 1.94771 12.4146C2.59673 11.3893 3.31283 10.5783 4.14877 10.0015C5.19622 9.27884 6.32113 9 7.49774 9H8.99774ZM5.99774 10.7313C4.83667 11.1271 3.83362 12.0681 2.84729 13.8371C2.62395 14.2376 2.20804 14.5 1.74944 14.5C1.19785 14.4999 0.709047 14.1245 0.606065 13.5826C-0.599845 7.23708 3.67704 4.5 7.49774 4.5L7.49774 3.33547C7.49774 2.32177 8.3195 1.5 9.3332 1.5C9.76259 1.5 10.1784 1.65054 10.5082 1.92542L15.2295 5.85982C15.7163 6.26546 15.9977 6.86636 15.9977 7.5C15.9977 8.13364 15.7163 8.73454 15.2295 9.14018L10.5082 13.0746C10.1784 13.3495 9.76259 13.5 9.3332 13.5C8.3195 13.5 7.49774 12.6782 7.49774 11.6645L7.49774 10.5C6.96546 10.5 6.4686 10.5708 5.99774 10.7313Z" fill="white"/>
</svg>
