<svg width="16" height="16" viewBox="0 0 16 16" fill="none" xmlns="http://www.w3.org/2000/svg">
<path fill-rule="evenodd" clip-rule="evenodd" d="M7.99814 1.5C11.2996 1.5 14.0252 3.96074 14.4428 7.14851C14.4966 7.55921 14.2072 7.93577 13.7965 7.98957C13.3858 8.04337 13.0093 7.75404 12.9555 7.34333C12.6345 4.89253 10.5367 3 7.99814 3C6.59976 3 5.33556 3.57344 4.42737 4.5H5.74815C6.16236 4.5 6.49815 4.83579 6.49815 5.25C6.49815 5.66421 6.16236 6 5.74815 6H2.74815C2.33393 6 1.99815 5.66421 1.99815 5.25V2.25C1.99815 1.83579 2.33393 1.5 2.74815 1.5C3.16236 1.5 3.49815 1.83579 3.49815 2.25V3.30963C4.66542 2.1896 6.25136 1.5 7.99814 1.5ZM13.2481 14.5C13.6624 14.5 13.9981 14.1642 13.9981 13.75L13.9981 10.75C13.9981 10.3358 13.6624 10 13.2481 10H10.2481C9.83393 10 9.49815 10.3358 9.49815 10.75C9.49815 11.1642 9.83393 11.5 10.2481 11.5H11.5689C10.6607 12.4266 9.39653 13 7.99815 13C5.45958 13 3.36183 11.1075 3.0408 8.65667C2.987 8.24596 2.61045 7.95663 2.19975 8.01043C1.78904 8.06423 1.49971 8.44079 1.55351 8.85149C1.97108 12.0393 4.69665 14.5 7.99815 14.5C9.74493 14.5 11.3309 13.8104 12.4981 12.6904L12.4981 13.75C12.4981 14.1642 12.8339 14.5 13.2481 14.5Z" fill="white"/>
</svg>
