<svg width="12" height="12" viewBox="0 0 12 12" fill="none" xmlns="http://www.w3.org/2000/svg">
<g clip-path="url(#clip0_41910_52729)">
<path fill-rule="evenodd" clip-rule="evenodd" d="M10.125 6C10.125 8.27817 8.27817 10.125 6 10.125C3.72182 10.125 1.875 8.27817 1.875 6C1.875 3.72182 3.72182 1.875 6 1.875C8.27817 1.875 10.125 3.72182 10.125 6ZM11.25 6C11.25 8.89949 8.89949 11.25 6 11.25C3.1005 11.25 0.75 8.89949 0.75 6C0.75 3.1005 3.1005 0.75 6 0.75C8.89949 0.75 11.25 3.1005 11.25 6ZM6.5625 3.375C6.5625 3.06434 6.31066 2.8125 6 2.8125C5.68934 2.8125 5.4375 3.06434 5.4375 3.375V6C5.4375 6.17705 5.52086 6.34377 5.6625 6.45L7.1625 7.575C7.41103 7.76139 7.7636 7.71103 7.95 7.4625C8.13639 7.21397 8.08603 6.86139 7.8375 6.675L6.5625 5.71875V3.375Z" fill="#808080"/>
</g>
<defs>
<clipPath id="clip0_41910_52729">
<rect width="12" height="12" fill="white"/>
</clipPath>
</defs>
</svg>
