<svg width="56" height="18" viewBox="0 0 56 18" fill="none" xmlns="http://www.w3.org/2000/svg">
<g clip-path="url(#clip0_41841_49190)">
<path d="M9.53628 16.3602V10.3395H2.96577V16.3602H0V2.01989H2.96577V7.64916H9.53628V2.01367H12.5201V16.354L9.53628 16.3602Z" fill="white"/>
<path d="M14.582 9.19605C14.582 4.87158 17.6503 1.77734 21.8397 1.77734C26.0533 1.77734 29.1215 4.87158 29.1215 9.19605C29.1215 13.5143 26.0593 16.6148 21.8397 16.6148C17.6503 16.6148 14.582 13.5205 14.582 9.19605ZM26.0774 9.19605C26.0774 6.50568 24.4076 4.48635 21.8397 4.48635C19.2718 4.48635 17.6262 6.50568 17.6262 9.19605C17.6262 11.8616 19.2718 13.9058 21.8397 13.9058C24.4076 13.9058 26.0774 11.8616 26.0774 9.19605Z" fill="white"/>
<path d="M33.9244 16.3602V4.70404H29.8555V2.01367H40.953V4.70404H36.9082V16.3602H33.9244Z" fill="white"/>
<path d="M49.8096 0C53.2274 0 55.994 3.02005 56 6.74805C55.9999 9.46918 55.1318 10.2278 50.4482 17.6338C50.1407 18.1179 49.4842 18.118 49.1768 17.6338C44.4932 10.2278 43.6251 9.46918 43.625 6.74805C43.625 3.0201 46.3918 8.27117e-05 49.8096 0ZM47.3438 5.62402C46.6626 7.03445 47.2109 8.73735 48.5732 9.43945C49.9414 10.1412 51.5932 9.57577 52.2744 8.17188C52.7205 7.2523 52.6537 6.13318 52.0811 5.26953C51.846 6.07093 51.4665 6.72973 51.2314 6.70508C51.0205 6.68022 51.0864 5.92851 50.4053 4.83496C50.0255 4.28204 49.5799 3.79091 49.0615 3.38086C48.9892 3.31253 48.9169 3.26259 48.8506 3.21289L48.5908 3.07031L47.3438 5.62402Z" fill="#EF3F3B"/>
</g>
<defs>
<clipPath id="clip0_41841_49190">
<rect width="56" height="18" fill="white"/>
</clipPath>
</defs>
</svg>
