<svg width="16" height="16" viewBox="0 0 16 16" fill="none" xmlns="http://www.w3.org/2000/svg">
<path fill-rule="evenodd" clip-rule="evenodd" d="M4.89982 5.89313L5.31148 6.79651L4.64081 7.52846L3.28526 9.00789L5.27891 8.78082L6.26529 8.66847L6.75417 9.5325L7.7423 11.2789L8.14241 9.31262L8.34037 8.33981L9.31319 8.14185L11.2794 7.74174L9.53306 6.75361L8.66903 6.26472L8.78138 5.27835L9.00846 3.28469L7.52903 4.64024L6.79707 5.31091L5.89369 4.89925L4.06778 4.06722L4.89982 5.89313ZM8.98101 1.2754L6.51568 3.53429L3.47298 2.14778C2.63132 1.76425 1.76481 2.63075 2.14835 3.47242L3.53486 6.51512L1.27596 8.98044C0.65111 9.66239 1.20744 10.7543 2.12643 10.6496L5.44866 10.2712L7.09529 13.1813C7.55078 13.9863 8.76111 13.7946 8.94555 12.8883L9.61229 9.61172L12.8889 8.94498C13.7952 8.76055 13.9869 7.55021 13.1819 7.09472L10.2717 5.4481L10.6501 2.12586C10.7548 1.20688 9.66296 0.650545 8.98101 1.2754ZM10.4697 11.5296C10.1768 11.2367 10.1768 10.7618 10.4697 10.4689C10.7626 10.176 11.2374 10.176 11.5303 10.4689L15.0303 13.9689C15.3232 14.2618 15.3232 14.7367 15.0303 15.0296C14.7374 15.3225 14.2626 15.3225 13.9697 15.0296L10.4697 11.5296Z" fill="white"/>
</svg>
