<svg width="36" height="80" viewBox="0 0 36 80" fill="none" xmlns="http://www.w3.org/2000/svg">
<circle cx="18" cy="18" r="18" fill="white" fill-opacity="0.25"/>
<path fill-rule="evenodd" clip-rule="evenodd" d="M18 11.75C18.4142 11.75 18.75 12.0858 18.75 12.5V17.25H23.5C23.9142 17.25 24.25 17.5858 24.25 18C24.25 18.4142 23.9142 18.75 23.5 18.75H18.75V23.5C18.75 23.9142 18.4142 24.25 18 24.25C17.5858 24.25 17.25 23.9142 17.25 23.5V18.75H12.5C12.0858 18.75 11.75 18.4142 11.75 18C11.75 17.5858 12.0858 17.25 12.5 17.25H17.25V12.5C17.25 12.0858 17.5858 11.75 18 11.75Z" fill="white"/>
<circle cx="18" cy="62" r="18" fill="white" fill-opacity="0.25"/>
<path fill-rule="evenodd" clip-rule="evenodd" d="M11.75 62C11.75 61.5858 12.0858 61.25 12.5 61.25H23.5C23.9142 61.25 24.25 61.5858 24.25 62C24.25 62.4142 23.9142 62.75 23.5 62.75H12.5C12.0858 62.75 11.75 62.4142 11.75 62Z" fill="white"/>
</svg>
