<svg width="16" height="16" viewBox="0 0 16 16" fill="none" xmlns="http://www.w3.org/2000/svg">
<path fill-rule="evenodd" clip-rule="evenodd" d="M11.4225 1C13.3979 1 14.9992 2.60135 14.9992 4.57671C14.9992 4.84774 14.8916 5.10767 14.6999 5.29931L14.1714 5.8278L12.2002 7.799C12.2001 7.79911 12.2 7.79921 12.1999 7.79931L7.14152 12.8577C6.72272 13.2765 6.18932 13.562 5.60855 13.6781L2.97011 14.2058C2.27039 14.3458 1.65347 13.7289 1.79341 13.0291L2.3211 10.3907C2.43726 9.80992 2.72272 9.27652 3.14152 8.85772L8.19993 3.79931C8.20013 3.79911 8.20033 3.79891 8.20053 3.79871L10.6999 1.29931C10.8916 1.10767 11.1515 1 11.4225 1ZM9.11203 5.00853L4.20218 9.91838C3.99278 10.1278 3.85005 10.3945 3.79197 10.6849L3.41137 12.5879L5.31438 12.2073C5.56846 12.1564 5.80442 12.0408 5.99972 11.8724C6.02762 11.8484 6.05469 11.8232 6.08086 11.7971L10.9907 6.88721C10.9006 5.8915 10.1077 5.0986 9.11203 5.00853ZM12.2108 5.66715C11.8494 4.82518 11.1741 4.14986 10.3321 3.78847L11.612 2.50853C12.6077 2.5986 13.4006 3.3915 13.4907 4.38721L12.2108 5.66715Z" fill="white"/>
</svg>
