<svg width="9" height="11" viewBox="0 0 9 11" fill="none" xmlns="http://www.w3.org/2000/svg">
<path d="M4.50306 5.5C4.78948 5.5 5.03365 5.39873 5.23558 5.19618C5.4375 4.99363 5.53846 4.75014 5.53846 4.46571C5.53846 4.18128 5.43648 3.9388 5.23252 3.73828C5.02855 3.53776 4.78336 3.4375 4.49694 3.4375C4.21052 3.4375 3.96635 3.53877 3.76442 3.74132C3.5625 3.94387 3.46154 4.18736 3.46154 4.47179C3.46154 4.75622 3.56352 4.9987 3.76748 5.19922C3.97145 5.39974 4.21664 5.5 4.50306 5.5ZM4.5 9.63932C5.64423 8.61762 6.50721 7.67708 7.08894 6.81771C7.67067 5.95833 7.96154 5.18967 7.96154 4.51172C7.96154 3.50911 7.63221 2.67839 6.97356 2.01953C6.3149 1.36068 5.49038 1.03125 4.5 1.03125C3.50962 1.03125 2.6851 1.36068 2.02644 2.01953C1.36779 2.67839 1.03846 3.50911 1.03846 4.51172C1.03846 5.18967 1.32933 5.95833 1.91106 6.81771C2.49279 7.67708 3.35577 8.61762 4.5 9.63932ZM4.5 11C2.99063 9.7481 1.86328 8.5853 1.11796 7.5116C0.372654 6.43789 0 5.43793 0 4.51172C0 3.2322 0.427885 2.16037 1.28365 1.29622C2.13942 0.432075 3.20913 0 4.49279 0C5.77644 0 6.84856 0.432075 7.70914 1.29622C8.56971 2.16037 9 3.2322 9 4.51172C9 5.43793 8.62981 6.43576 7.88942 7.50521C7.14904 8.57465 6.01923 9.73958 4.5 11Z" fill="#808080"/>
</svg>
