<svg width="16" height="16" viewBox="0 0 16 16" fill="none" xmlns="http://www.w3.org/2000/svg">
<path fill-rule="evenodd" clip-rule="evenodd" d="M7.49878 5C7.49878 5.82843 6.82721 6.5 5.99878 6.5C5.17035 6.5 4.49878 5.82843 4.49878 5C4.49878 4.17157 5.17035 3.5 5.99878 3.5C6.82721 3.5 7.49878 4.17157 7.49878 5ZM8.90427 5.75C8.57123 7.04392 7.39666 8 5.99878 8C4.6009 8 3.42632 7.04392 3.09329 5.75H1.74609C1.33188 5.75 0.996094 5.41421 0.996094 5C0.996094 4.58579 1.33188 4.25 1.74609 4.25H3.09329C3.42632 2.95608 4.6009 2 5.99878 2C7.39666 2 8.57123 2.95608 8.90427 4.25H14.2489C14.6631 4.25 14.9989 4.58579 14.9989 5C14.9989 5.41421 14.6631 5.75 14.2489 5.75H8.90427ZM1.74609 10.25L7.09085 10.25C7.42388 8.95608 8.59846 8 9.99634 8C11.3942 8 12.5688 8.95608 12.9018 10.25H14.249C14.6632 10.25 14.999 10.5858 14.999 11C14.999 11.4142 14.6632 11.75 14.249 11.75H12.9018C12.5688 13.0439 11.3942 14 9.99634 14C8.59846 14 7.42388 13.0439 7.09085 11.75L1.74609 11.75C1.33188 11.75 0.996094 11.4142 0.996094 11C0.996094 10.5858 1.33188 10.25 1.74609 10.25ZM9.99634 9.5C9.16791 9.5 8.49634 10.1716 8.49634 11C8.49634 11.8284 9.16791 12.5 9.99634 12.5C10.8248 12.5 11.4963 11.8284 11.4963 11C11.4963 10.1716 10.8248 9.5 9.99634 9.5Z" fill="#EF3F3B"/>
</svg>
