<svg width="8" height="8" viewBox="0 0 8 8" fill="none" xmlns="http://www.w3.org/2000/svg">
<path d="M2.95217 0.789184C3.28198 -0.263061 4.71802 -0.263061 5.04783 0.789184L5.2368 1.39207C5.38429 1.86264 5.80732 2.18125 6.28463 2.18125H6.89613C7.96343 2.18125 8.40719 3.59704 7.54373 4.24736L7.04901 4.61996C6.66286 4.9108 6.50128 5.42631 6.64877 5.89689L6.83774 6.49977C7.16755 7.55202 6.00577 8.42702 5.14231 7.7767L4.6476 7.4041C4.26144 7.11326 3.73856 7.11326 3.3524 7.4041L2.85769 7.7767C1.99423 8.42702 0.832448 7.55202 1.16226 6.49977L1.35123 5.89689C1.49872 5.42631 1.33714 4.9108 0.950989 4.61996L0.456271 4.24736C-0.407189 3.59704 0.0365714 2.18125 1.10387 2.18125H1.71537C2.19268 2.18125 2.61571 1.86264 2.7632 1.39207L2.95217 0.789184Z" fill="#F5BC41"/>
</svg>
