<svg width="36" height="51" viewBox="0 0 36 51" fill="none" xmlns="http://www.w3.org/2000/svg">
<path d="M17.9912 0C27.9337 0 35.9824 8.53202 36 19.0654C36 26.7549 33.4746 28.8967 19.8496 49.8232C18.9553 51.1925 17.0447 51.1926 16.1504 49.8232C2.52543 28.8967 0 26.7549 0 19.0654C0.000102047 8.53204 8.04875 2.44546e-05 17.9912 0ZM10.8145 15.8887C8.83305 19.8737 10.4289 24.6841 14.3916 26.668C18.372 28.6517 23.1766 27.0542 25.1582 23.0869C26.4558 20.4887 26.2635 17.328 24.5977 14.8877C23.9138 17.1524 22.8089 19.0136 22.125 18.9434C21.5113 18.873 21.7041 16.7489 19.7227 13.6592C18.6179 12.0967 17.3205 10.7095 15.8125 9.55078C15.6021 9.3577 15.3911 9.21758 15.1982 9.07715L14.4443 8.67285L10.8145 15.8887Z" fill="#EF3F3B"/>
</svg>
